# Blender 4.1.0
# www.blender.org
mtllib 닭고기 한개.mtl
o 평면.001
v -0.125553 -0.052240 -0.412580
v -0.125553 0.052240 -0.412580
v -0.122482 -0.049168 -0.547476
v -0.122482 0.049168 -0.547476
v 0.136206 -0.052240 -0.412580
v 0.136206 0.052240 -0.412580
v 0.133134 -0.049168 -0.547476
v 0.133134 0.049168 -0.547476
v 0.123797 0.070332 -0.519570
v -0.113145 0.070332 -0.519570
v -0.113145 0.070332 -0.439908
v 0.123797 0.070332 -0.439908
v -0.144082 -0.049130 -0.430609
v -0.144082 0.049130 -0.430609
v -0.144082 0.049130 -0.528870
v -0.144082 -0.049130 -0.528870
v 0.150977 -0.053161 -0.532901
v 0.150977 0.053161 -0.532901
v 0.150977 0.053161 -0.426578
v 0.150977 -0.053161 -0.426578
v -0.134160 0.060846 -0.540586
v -0.134160 -0.060846 -0.540586
v 0.144813 -0.060846 -0.540586
v 0.144813 0.060846 -0.540586
v -0.134160 -0.060846 -0.418893
v -0.134160 0.060846 -0.418893
v 0.144813 0.060846 -0.418893
v 0.144813 -0.060846 -0.418893
v 0.075069 -0.060846 -0.561160
v 0.075069 0.060846 -0.561160
v 0.075069 -0.060846 -0.398240
v 0.075069 0.060846 -0.398240
v 0.064562 0.070332 -0.533026
v 0.064562 0.070332 -0.426375
v 0.069230 -0.049168 -0.570385
v 0.069230 0.049168 -0.570385
v 0.070766 -0.052240 -0.389788
v 0.070766 0.052240 -0.389788
v -0.125407 -0.052253 -0.412538
v -0.125415 0.052253 -0.412541
v -0.122358 -0.049154 -0.547512
v -0.122362 0.049161 -0.547509
v 0.136057 -0.052201 -0.412505
v 0.136058 0.052229 -0.412511
v 0.133015 -0.049103 -0.547535
v 0.133013 0.049133 -0.547531
v 0.123737 0.070346 -0.519548
v -0.113093 0.070345 -0.519543
v -0.113094 0.070344 -0.439933
v 0.123738 0.070345 -0.439927
v -0.144107 -0.049118 -0.430690
v -0.144108 0.049110 -0.430683
v -0.144107 0.049109 -0.528800
v -0.144107 -0.049116 -0.528793
v 0.151015 -0.053142 -0.532776
v 0.151015 0.053130 -0.532787
v 0.151016 0.053133 -0.426699
v 0.151016 -0.053145 -0.426710
v -0.134140 0.060855 -0.540595
v -0.134158 -0.060821 -0.540620
v 0.144816 -0.060806 -0.540637
v 0.144802 0.060843 -0.540601
v -0.134161 -0.060816 -0.418852
v -0.134136 0.060853 -0.418877
v 0.144798 0.060838 -0.418866
v 0.144818 -0.060797 -0.418829
v 0.075104 -0.060788 -0.561239
v 0.075087 0.060828 -0.561178
v 0.075106 -0.060804 -0.398176
v 0.075087 0.060842 -0.398238
v 0.064557 0.070340 -0.532986
v 0.064557 0.070339 -0.426409
v 0.069216 -0.049123 -0.570397
v 0.069221 0.049143 -0.570392
v 0.070749 -0.052219 -0.389780
v 0.070754 0.052237 -0.389786
vn -1.0000 -0.0000 -0.0000
vn 0.3375 -0.0000 -0.9413
vn 1.0000 -0.0000 -0.0000
vn -0.0000 -1.0000 -0.0000
vn -0.0311 0.9347 -0.3541
vn -0.4114 0.9114 -0.0000
vn 0.0828 0.9464 0.3122
vn 0.4114 0.9115 -0.0000
vn -0.7631 -0.0000 0.6463
vn -0.7631 0.6463 -0.0000
vn -0.7631 -0.0000 -0.6463
vn -0.7631 -0.6463 -0.0000
vn 0.7801 -0.0000 -0.6257
vn 0.7801 0.6257 -0.0000
vn 0.7801 -0.0000 0.6257
vn 0.7801 -0.6257 -0.0000
vn -0.5081 -0.0000 -0.8613
vn 0.2848 -0.3904 -0.8755
vn -0.0900 0.5503 -0.8301
vn 0.5081 -0.0000 -0.8613
vn -0.5914 -0.0000 0.8064
vn 0.5914 -0.0000 0.8064
vn -0.0821 -0.6370 0.7665
vn 0.2638 0.5064 0.8210
vn -0.0821 0.6370 0.7665
vn 0.2638 -0.5064 0.8210
vn 0.2848 0.3904 -0.8755
vn -0.0900 -0.5503 -0.8301
vn -0.0313 0.9347 0.3541
vn 0.0824 0.9464 -0.3124
vn -0.0000 1.0000 -0.0000
vn 0.3289 -0.0000 0.9444
vn 0.3373 -0.0000 -0.9414
vn -0.1152 -0.0000 0.9933
vn -0.0001 -1.0000 -0.0000
vn -0.0311 0.9347 -0.3540
vn -0.4111 0.9116 -0.0000
vn 0.0827 0.9464 0.3122
vn 0.4113 0.9115 -0.0000
vn -0.7648 0.0001 0.6443
vn -0.7624 0.6471 -0.0000
vn -0.7645 0.0001 -0.6446
vn -0.7619 -0.6477 -0.0000
vn 0.7840 0.0001 -0.6208
vn 0.7785 0.6277 -0.0000
vn 0.7846 0.0001 0.6200
vn 0.7773 -0.6291 -0.0000
vn -0.5053 0.0001 -0.8629
vn 0.2855 -0.3865 -0.8770
vn -0.0900 0.5500 -0.8303
vn 0.5057 0.0002 -0.8627
vn -0.5864 0.0001 0.8100
vn 0.5867 0.0002 0.8098
vn -0.0821 -0.6367 0.7667
vn 0.2637 0.5061 0.8212
vn -0.0820 0.6375 0.7661
vn 0.2644 -0.5030 0.8228
vn 0.2850 0.3894 -0.8759
vn -0.0901 -0.5488 -0.8311
vn -0.0312 0.9348 0.3539
vn 0.0823 0.9463 -0.3126
vn -0.0001 1.0000 -0.0000
vn 0.0001 -1.0000 -0.0000
vn 0.3286 -0.0000 0.9445
vn -0.1186 -0.0000 -0.9929
vt 0.729748 0.358027
vt 0.730884 0.298338
vt 0.790593 0.298854
vt 0.789458 0.358543
vt 0.928095 0.360126
vt 0.929404 0.298287
vt 0.974186 0.295889
vt 0.973900 0.362637
vt 0.458448 0.363457
vt 0.458240 0.292425
vt 0.529271 0.292642
vt 0.529480 0.363674
vt 0.685347 0.201006
vt 0.672046 0.245850
vt 0.593765 0.245736
vt 0.580546 0.200853
vt 0.561080 0.110243
vt 0.546758 0.245667
vt 0.532399 0.231014
vt 0.541447 0.117448
vt 0.467963 0.245552
vt 0.482193 0.230704
vt 0.452575 0.110717
vt 0.466963 0.064884
vt 0.481152 0.079581
vt 0.472143 0.117694
vt 0.546128 0.064176
vt 0.532151 0.079281
vt 0.720137 0.367952
vt 0.721043 0.288782
vt 0.800204 0.288929
vt 0.799299 0.368099
vt 0.451470 0.370435
vt 0.451593 0.285778
vt 0.536250 0.285664
vt 0.536127 0.370321
vt 0.808881 0.297146
vt 0.808005 0.360023
vt 0.983185 0.371200
vt 0.932319 0.369835
vt 0.933607 0.288717
vt 0.983390 0.287472
vt 0.713267 0.361560
vt 0.714205 0.295079
vt 0.543674 0.292291
vt 0.543435 0.363792
vt 0.589853 0.361324
vt 0.586606 0.369171
vt 0.591204 0.294638
vt 0.587908 0.286694
vt 0.672308 0.066396
vt 0.594028 0.066282
s 0
usemtl 매테리얼.005
f 13/1/1 14/2/1 15/3/1 16/4/1
f 35/5/2 36/6/2 8/7/2 7/8/2
f 17/9/3 18/10/3 19/11/3 20/12/3
f 29/13/4 23/14/4 28/15/4 31/16/4
f 30/17/5 21/18/5 10/19/5 33/20/5
f 21/18/6 26/21/6 11/22/6 10/19/6
f 32/23/7 27/24/7 12/25/7 34/26/7
f 27/24/8 24/27/8 9/28/8 12/25/8
f 25/29/9 26/30/9 14/2/9 13/1/9
f 26/30/10 21/31/10 15/3/10 14/2/10
f 21/31/11 22/32/11 16/4/11 15/3/11
f 22/32/12 25/29/12 13/1/12 16/4/12
f 23/33/13 24/34/13 18/10/13 17/9/13
f 24/34/14 27/35/14 19/11/14 18/10/14
f 27/35/15 28/36/15 20/12/15 19/11/15
f 28/36/16 23/33/16 17/9/16 20/12/16
f 4/37/17 3/38/17 22/32/17 21/31/17
f 35/5/18 7/8/18 23/39/18 29/40/18
f 36/6/19 4/37/19 21/31/19 30/41/19
f 7/8/20 8/7/20 24/42/20 23/39/20
f 1/43/21 2/44/21 26/30/21 25/29/21
f 6/45/22 5/46/22 28/36/22 27/35/22
f 37/47/23 1/43/23 25/29/23 31/48/23
f 38/49/24 6/45/24 27/35/24 32/50/24
f 2/44/25 38/49/25 32/50/25 26/30/25
f 5/46/26 37/47/26 31/48/26 28/36/26
f 8/7/27 36/6/27 30/41/27 24/42/27
f 3/38/28 35/5/28 29/40/28 22/32/28
f 26/21/29 32/23/29 34/26/29 11/22/29
f 24/27/30 30/17/30 33/20/30 9/28/30
f 9/28/31 33/20/31 34/26/31 12/25/31
f 22/51/4 29/13/4 31/16/4 25/52/4
f 5/46/32 6/45/32 38/49/32 37/47/32
f 51/1/1 52/2/1 53/3/1 54/4/1
f 73/5/33 74/6/33 46/7/33 45/8/33
f 55/9/3 56/10/3 57/11/3 58/12/3
f 75/47/34 76/49/34 40/44/34 39/43/34
f 67/13/35 61/14/35 66/15/35 69/16/35
f 71/20/31 48/19/31 49/22/31 72/26/31
f 68/17/36 59/18/36 48/19/36 71/20/36
f 59/18/37 64/21/37 49/22/37 48/19/37
f 70/23/38 65/24/38 50/25/38 72/26/38
f 65/24/39 62/27/39 47/28/39 50/25/39
f 63/29/40 64/30/40 52/2/40 51/1/40
f 64/30/41 59/31/41 53/3/41 52/2/41
f 59/31/42 60/32/42 54/4/42 53/3/42
f 60/32/43 63/29/43 51/1/43 54/4/43
f 61/33/44 62/34/44 56/10/44 55/9/44
f 62/34/45 65/35/45 57/11/45 56/10/45
f 65/35/46 66/36/46 58/12/46 57/11/46
f 66/36/47 61/33/47 55/9/47 58/12/47
f 42/37/48 41/38/48 60/32/48 59/31/48
f 73/5/49 45/8/49 61/39/49 67/40/49
f 74/6/50 42/37/50 59/31/50 68/41/50
f 45/8/51 46/7/51 62/42/51 61/39/51
f 39/43/52 40/44/52 64/30/52 63/29/52
f 44/45/53 43/46/53 66/36/53 65/35/53
f 75/47/54 39/43/54 63/29/54 69/48/54
f 76/49/55 44/45/55 65/35/55 70/50/55
f 40/44/56 76/49/56 70/50/56 64/30/56
f 43/46/57 75/47/57 69/48/57 66/36/57
f 46/7/58 74/6/58 68/41/58 62/42/58
f 41/38/59 73/5/59 67/40/59 60/32/59
f 64/21/60 70/23/60 72/26/60 49/22/60
f 62/27/61 68/17/61 71/20/61 47/28/61
f 47/28/62 71/20/62 72/26/62 50/25/62
f 60/51/63 67/13/63 69/16/63 63/52/63
f 43/46/64 44/45/64 76/49/64 75/47/64
f 41/38/65 42/37/65 74/6/65 73/5/65
