# This file uses centimeters as units for non-parametric coordinates.

mtllib board.mtl
g default
v -20.428783 1.485288 10.267734
v -20.032764 1.485288 11.097246
v -19.076685 1.485288 11.440841
v 20.428783 1.485288 10.267734
v 19.076685 1.485288 11.440841
v 20.032764 1.485288 11.097246
v -19.076685 1.485288 10.267735
v 19.076672 1.485288 10.267734
v -20.428783 1.485288 -10.850554
v -20.032764 1.485288 -11.680065
v -19.076685 1.485288 -12.023661
v 20.428783 1.485288 -10.850554
v 19.076685 1.485288 -12.023661
v 20.032764 1.485288 -11.680065
v -19.076685 1.485288 -10.850554
v 19.076672 1.485288 -10.850554
v -20.975386 0.766254 10.550259
v -19.587109 0.766254 11.754754
v 19.587109 0.766254 11.754754
v 20.975386 0.766254 10.550259
v -20.568768 0.766254 11.401966
v 20.568768 0.766254 11.401966
v -19.587109 0.766254 -12.337573
v 19.587109 0.766254 -12.337573
v 20.975386 0.766254 -11.133079
v -20.568768 0.766254 -11.984785
v -20.975386 0.766254 -11.133079
v 20.568768 0.766254 -11.984785
v -20.975386 0.047228 10.550259
v -20.568768 0.047228 11.401966
v -19.587109 0.047228 11.754754
v 20.975386 0.047228 10.550259
v 19.587109 0.047228 11.754754
v 20.568768 0.047228 11.401966
v -19.587109 0.047228 10.550259
v 19.587093 0.047228 10.550259
v -20.975386 0.047228 -11.133079
v -20.568768 0.047228 -11.984785
v -19.587109 0.047228 -12.337573
v 20.975386 0.047228 -11.133079
v 19.587109 0.047228 -12.337573
v 20.568768 0.047228 -11.984785
v -19.587109 0.047228 -11.133079
v 19.587093 0.047228 -11.133079
vt 0.549789 0.393865
vt 0.544051 0.385488
vt 0.960202 0.383746
vt 0.954543 0.392160
vt 0.968363 0.665220
vt 0.968386 0.405686
vt 0.977769 0.401719
vt 0.977702 0.669669
vt 0.550194 0.407994
vt 0.954272 0.406271
vt 0.954398 0.663878
vt 0.552015 0.665199
vt 0.536138 0.407536
vt 0.537983 0.666672
vt 0.540412 0.397855
vt 0.963967 0.396045
vt 0.551821 0.679060
vt 0.954706 0.677730
vt 0.960366 0.685936
vt 0.546224 0.687308
vt 0.542360 0.676199
vt 0.964235 0.674919
vt 0.528683 0.671212
vt 0.526710 0.403654
vt 0.532946 0.392416
vt 0.971289 0.390435
vt 0.535920 0.683794
vt 0.970925 0.682669
vt 0.543765 0.377962
vt 0.960448 0.376179
vt 0.546774 0.988196
vt 0.536371 0.983933
vt 0.532029 0.973563
vt 0.546721 0.973505
vt 0.961847 0.986738
vt 0.961796 0.972046
vt 0.976488 0.972004
vt 0.972218 0.982403
vt 0.519167 0.403304
vt 0.521243 0.671852
vt 0.961034 0.707630
vt 0.975792 0.707042
vt 0.545962 0.694679
vt 0.960641 0.693291
vt 0.985256 0.401344
vt 0.985222 0.670298
vt 0.545666 0.709014
vt 0.530904 0.708538
vt 0.533197 0.692463
vt 0.973365 0.690902
vt 0.528143 0.387440
vt 0.976266 0.385657
vn -0.004618 0.402855 0.915252
vn -0.011623 0.173267 0.984806
vn 0.011623 0.173267 0.984806
vn 0.004618 0.402855 0.915252
vn 0.793931 0.607907 -0.011122
vn 0.793931 0.607907 0.011122
vn 0.947367 0.319546 0.019659
vn 0.947367 0.319546 -0.019659
vn 0.000000 1.000000 0.000000
vn 0.000000 1.000000 0.000000
vn 0.000000 1.000000 0.000000
vn 0.000000 1.000000 0.000000
vn 0.000000 1.000000 0.000000
vn 0.000000 1.000000 0.000000
vn 0.000000 1.000000 0.000000
vn 0.000000 1.000000 0.000000
vn 0.000000 1.000000 0.000000
vn 0.000000 1.000000 0.000000
vn 0.000000 1.000000 0.000000
vn 0.000000 1.000000 0.000000
vn 0.000000 1.000000 0.000000
vn 0.000000 1.000000 0.000000
vn 0.000000 1.000000 0.000000
vn 0.000000 1.000000 0.000000
vn 0.000000 1.000000 0.000000
vn 0.000000 1.000000 0.000000
vn 0.000000 1.000000 0.000000
vn 0.000000 1.000000 0.000000
vn -0.004618 0.402855 -0.915252
vn 0.004618 0.402855 -0.915252
vn 0.011623 0.173267 -0.984806
vn -0.011623 0.173267 -0.984806
vn 0.000000 1.000000 0.000000
vn 0.000000 1.000000 0.000000
vn 0.000000 1.000000 0.000000
vn 0.000000 1.000000 0.000000
vn 0.000000 1.000000 0.000000
vn 0.000000 1.000000 0.000000
vn 0.000000 1.000000 0.000000
vn 0.000000 1.000000 0.000000
vn 0.000000 1.000000 0.000000
vn 0.000000 1.000000 0.000000
vn 0.000000 1.000000 0.000000
vn 0.000000 1.000000 0.000000
vn -0.793931 0.607907 0.011122
vn -0.793931 0.607907 -0.011122
vn -0.947367 0.319546 -0.019659
vn -0.947367 0.319546 0.019659
vn 0.000000 1.000000 0.000000
vn 0.000000 1.000000 0.000000
vn 0.000000 1.000000 0.000000
vn 0.000000 1.000000 0.000000
vn -0.947367 0.319546 0.019659
vn -0.835783 0.377167 0.399014
vn -0.685801 0.649984 0.327411
vn -0.793931 0.607907 0.011122
vn -0.325840 0.267895 0.906675
vn -0.011623 0.173267 0.984806
vn -0.004618 0.402855 0.915252
vn -0.283443 0.545536 0.788702
vn 0.011623 0.173267 0.984806
vn 0.325840 0.267894 0.906676
vn 0.283443 0.545536 0.788702
vn 0.004618 0.402855 0.915252
vn 0.835783 0.377166 0.399014
vn 0.947367 0.319546 0.019659
vn 0.793931 0.607907 0.011122
vn 0.685802 0.649983 0.327411
vn -0.835782 0.377167 -0.399015
vn -0.947367 0.319546 -0.019659
vn -0.793931 0.607907 -0.011122
vn -0.685801 0.649984 -0.327411
vn -0.011623 0.173267 -0.984806
vn -0.325841 0.267894 -0.906675
vn -0.283444 0.545535 -0.788702
vn -0.004618 0.402855 -0.915252
vn 0.325841 0.267895 -0.906675
vn 0.011623 0.173267 -0.984806
vn 0.004618 0.402855 -0.915252
vn 0.283443 0.545536 -0.788702
vn 0.947367 0.319546 -0.019659
vn 0.835782 0.377167 -0.399015
vn 0.685801 0.649984 -0.327411
vn 0.793931 0.607907 -0.011122
vn -0.008785 0.000000 0.999961
vn 0.008785 0.000000 0.999961
vn 0.011623 0.173267 0.984806
vn -0.011623 0.173267 0.984806
vn 0.000000 -1.000000 0.000000
vn 0.000000 -1.000000 0.000000
vn 0.000000 -1.000000 0.000000
vn 0.000000 -1.000000 0.000000
vn 0.000000 -1.000000 0.000000
vn 0.000000 -1.000000 0.000000
vn 0.000000 -1.000000 0.000000
vn 0.000000 -1.000000 0.000000
vn 0.000000 -1.000000 0.000000
vn 0.000000 -1.000000 0.000000
vn 0.000000 -1.000000 0.000000
vn 0.000000 -1.000000 0.000000
vn -0.999837 0.000000 0.018041
vn -0.947367 0.319546 0.019659
vn -0.947367 0.319546 -0.019659
vn -0.999837 0.000000 -0.018041
vn 0.000000 -1.000000 0.000000
vn 0.000000 -1.000000 0.000000
vn 0.000000 -1.000000 0.000000
vn 0.000000 -1.000000 0.000000
vn -0.008785 0.000000 -0.999961
vn -0.011623 0.173267 -0.984806
vn 0.011623 0.173267 -0.984806
vn 0.008785 0.000000 -0.999961
vn 0.999837 0.000000 0.018041
vn 0.999837 0.000000 -0.018041
vn 0.947367 0.319546 -0.019659
vn 0.947367 0.319546 0.019659
vn 0.000000 -1.000000 0.000000
vn 0.000000 -1.000000 0.000000
vn 0.000000 -1.000000 0.000000
vn 0.000000 -1.000000 0.000000
vn 0.000000 -1.000000 0.000000
vn 0.000000 -1.000000 0.000000
vn 0.000000 -1.000000 0.000000
vn 0.000000 -1.000000 0.000000
vn 0.000000 -1.000000 0.000000
vn 0.000000 -1.000000 0.000000
vn 0.000000 -1.000000 0.000000
vn 0.000000 -1.000000 0.000000
vn 0.000000 -1.000000 0.000000
vn 0.000000 -1.000000 0.000000
vn 0.000000 -1.000000 0.000000
vn 0.000000 -1.000000 0.000000
vn 0.000000 -1.000000 0.000000
vn 0.000000 -1.000000 0.000000
vn 0.000000 -1.000000 0.000000
vn 0.000000 -1.000000 0.000000
vn -0.947367 0.319546 0.019659
vn -0.999837 0.000000 0.018041
vn -0.902431 0.000000 0.430834
vn -0.835783 0.377167 0.399014
vn -0.325840 0.267895 0.906675
vn -0.338203 0.000000 0.941073
vn -0.008785 0.000000 0.999961
vn -0.011623 0.173267 0.984806
vn 0.011623 0.173267 0.984806
vn 0.008785 0.000000 0.999961
vn 0.338203 0.000000 0.941073
vn 0.325840 0.267894 0.906676
vn 0.835783 0.377166 0.399014
vn 0.902431 0.000000 0.430834
vn 0.999837 0.000000 0.018041
vn 0.947367 0.319546 0.019659
vn -0.835782 0.377167 -0.399015
vn -0.902431 0.000000 -0.430835
vn -0.999837 0.000000 -0.018041
vn -0.947367 0.319546 -0.019659
vn -0.011623 0.173267 -0.984806
vn -0.008785 0.000000 -0.999961
vn -0.338203 0.000000 -0.941073
vn -0.325841 0.267894 -0.906675
vn 0.325841 0.267895 -0.906675
vn 0.338203 0.000000 -0.941073
vn 0.008785 0.000000 -0.999961
vn 0.011623 0.173267 -0.984806
vn 0.947367 0.319546 -0.019659
vn 0.999837 0.000000 -0.018041
vn 0.902431 0.000000 -0.430835
vn 0.835782 0.377167 -0.399015
s off
g board:board
usemtl board:aiLayerShader1SG
f 3/1/1 18/2/2 19/3/3 5/4/4
f 12/5/5 4/6/6 20/7/7 25/8/8
f 7/9/9 8/10/10 16/11/11 15/12/12
f 1/13/13 7/9/14 15/12/15 9/14/16
f 3/1/17 7/9/18 1/13/19 2/15/20
f 5/4/21 8/10/22 7/9/23 3/1/24
f 4/6/25 8/10/26 5/4/27 6/16/28
f 11/17/29 13/18/30 24/19/31 23/20/32
f 11/17/33 10/21/34 9/14/35 15/12/36
f 13/18/37 11/17/38 15/12/39 16/11/40
f 12/5/41 14/22/42 13/18/43 16/11/44
f 1/13/45 9/14/46 27/23/47 17/24/48
f 12/5/49 16/11/50 8/10/51 4/6/52
f 17/24/53 21/25/54 2/15/55 1/13/56
f 21/25/57 18/2/58 3/1/59 2/15/60
f 19/3/61 22/26/62 6/16/63 5/4/64
f 22/26/65 20/7/66 4/6/67 6/16/68
f 26/27/69 27/23/70 9/14/71 10/21/72
f 23/20/73 26/27/74 10/21/75 11/17/76
f 28/28/77 24/19/78 13/18/79 14/22/80
f 25/8/81 28/28/82 14/22/83 12/5/84
f 31/29/85 33/30/86 19/3/87 18/2/88
f 31/31/89 30/32/90 29/33/91 35/34/92
f 33/35/93 31/31/94 35/34/95 36/36/96
f 32/37/97 34/38/98 33/35/99 36/36/100
f 29/39/101 17/24/102 27/23/103 37/40/104
f 32/37/105 36/36/106 44/41/107 40/42/108
f 39/43/109 23/20/110 24/19/111 41/44/112
f 32/45/113 40/46/114 25/8/115 20/7/116
f 35/34/117 43/47/118 44/41/119 36/36/120
f 29/33/121 37/48/122 43/47/123 35/34/124
f 39/43/125 43/47/126 37/48/127 38/49/128
f 41/44/129 44/41/130 43/47/131 39/43/132
f 40/42/133 44/41/134 41/44/135 42/50/136
f 17/24/137 29/39/138 30/51/139 21/25/140
f 21/25/141 30/51/142 31/29/143 18/2/144
f 19/3/145 33/30/146 34/52/147 22/26/148
f 22/26/149 34/52/150 32/45/151 20/7/152
f 26/27/153 38/49/154 37/40/155 27/23/156
f 23/20/157 39/43/158 38/49/159 26/27/160
f 28/28/161 42/50/162 41/44/163 24/19/164
f 25/8/165 40/46/166 42/50/167 28/28/168
