# This file uses centimeters as units for non-parametric coordinates.

mtllib sauce.mtl
g default
v 0.823724 0.028836 -0.341197
v 0.630451 0.028836 -0.630451
v 0.341198 0.028836 -0.823724
v 0.000000 0.028836 -0.891592
v -0.341197 0.028836 -0.823724
v -0.630451 0.028836 -0.630451
v -0.823724 0.028836 -0.341198
v -0.891592 0.028836 -0.000000
v -0.823724 0.028836 0.341197
v -0.630451 0.028836 0.630451
v -0.341198 0.028836 0.823724
v -0.000000 0.028836 0.891592
v 0.341197 0.028836 0.823724
v 0.630451 0.028836 0.630451
v 0.823724 0.028836 0.341198
v 0.891592 0.028836 0.000000
v 0.923880 4.806547 -0.382683
v 0.707107 4.806547 -0.707106
v 0.382684 4.806547 -0.923879
v 0.000001 4.806547 -1.000000
v -0.382683 4.806547 -0.923880
v -0.707106 4.806547 -0.707107
v -0.923879 4.806547 -0.382684
v -1.000000 4.806547 -0.000000
v -0.923880 4.806547 0.382683
v -0.707107 4.806547 0.707107
v -0.382684 4.806547 0.923879
v -0.000000 4.806547 1.000000
v 0.382683 4.806547 0.923880
v 0.707107 4.806547 0.707107
v 0.923880 4.806547 0.382683
v 1.000000 4.806547 0.000000
v 0.000000 0.028836 0.000000
v 0.730310 5.090024 -0.302504
v 0.558955 5.090024 -0.558955
v 0.302505 5.090024 -0.730310
v 0.000000 5.090024 -0.790482
v -0.302504 5.090024 -0.730310
v -0.558955 5.090024 -0.558955
v -0.730310 5.090024 -0.302505
v -0.790482 5.090024 -0.000000
v -0.730310 5.090024 0.302504
v -0.558955 5.090024 0.558955
v -0.302504 5.090024 0.730310
v -0.000000 5.090024 0.790482
v 0.302504 5.090024 0.730310
v 0.558955 5.090024 0.558955
v 0.730310 5.090024 0.302504
v 0.790482 5.090024 0.000000
v 0.359494 5.090024 -0.148907
v 0.275144 5.090024 -0.275144
v 0.148907 5.090024 -0.359494
v 0.000000 5.090024 -0.389113
v -0.148907 5.090024 -0.359494
v -0.275144 5.090024 -0.275144
v -0.359494 5.090024 -0.148907
v -0.389113 5.090024 -0.000000
v -0.359494 5.090024 0.148907
v -0.275144 5.090024 0.275144
v -0.148907 5.090024 0.359494
v -0.000000 5.090024 0.389113
v 0.148907 5.090024 0.359494
v 0.275144 5.090024 0.275144
v 0.359494 5.090024 0.148907
v 0.389113 5.090024 0.000000
v 0.359494 5.506474 -0.148907
v 0.275144 5.506474 -0.275144
v 0.148907 5.506474 -0.359494
v 0.000000 5.506474 -0.389113
v -0.148907 5.506474 -0.359494
v -0.275144 5.506474 -0.275144
v -0.359494 5.506474 -0.148907
v -0.389113 5.506474 -0.000000
v -0.359494 5.506474 0.148907
v -0.275144 5.506474 0.275144
v -0.148907 5.506474 0.359494
v -0.000000 5.506474 0.389113
v 0.148907 5.506474 0.359494
v 0.275144 5.506474 0.275144
v 0.359494 5.506474 0.148907
v 0.389113 5.506474 0.000000
v 0.282066 5.593889 -0.116836
v 0.215884 5.593889 -0.215884
v 0.116836 5.593889 -0.282066
v 0.000000 5.593889 -0.305306
v -0.116836 5.593889 -0.282066
v -0.215884 5.593889 -0.215884
v -0.282066 5.593889 -0.116836
v -0.305306 5.593889 -0.000000
v -0.282066 5.593889 0.116836
v -0.215884 5.593889 0.215884
v -0.116836 5.593889 0.282066
v -0.000000 5.593889 0.305306
v 0.116836 5.593889 0.282066
v 0.215884 5.593889 0.215884
v 0.282066 5.593889 0.116836
v 0.305306 5.593889 0.000000
v 0.191000 5.593889 -0.079115
v 0.146185 5.593889 -0.146185
v 0.079115 5.593889 -0.191000
v 0.000000 5.593889 -0.206737
v -0.079115 5.593889 -0.191000
v -0.146185 5.593889 -0.146185
v -0.191000 5.593889 -0.079115
v -0.206737 5.593889 -0.000000
v -0.191000 5.593889 0.079115
v -0.146185 5.593889 0.146185
v -0.079115 5.593889 0.191001
v -0.000000 5.593889 0.206737
v 0.079115 5.593889 0.191001
v 0.146185 5.593889 0.146185
v 0.191000 5.593889 0.079115
v 0.206737 5.593889 0.000000
v 0.057841 6.537484 -0.023958
v 0.044269 6.537484 -0.044269
v 0.000000 6.537484 0.000000
v 0.023959 6.537484 -0.057841
v 0.000000 6.537484 -0.062606
v -0.023958 6.537484 -0.057841
v -0.044269 6.537484 -0.044269
v -0.057841 6.537484 -0.023958
v -0.062606 6.537484 0.000000
v -0.057841 6.537484 0.023959
v -0.044269 6.537484 0.044269
v -0.023959 6.537484 0.057841
v -0.000000 6.537484 0.062607
v 0.023959 6.537484 0.057841
v 0.044269 6.537484 0.044269
v 0.057841 6.537484 0.023959
v 0.062606 6.537484 0.000000
v 0.923880 0.244512 -0.382683
v 1.000000 0.244512 0.000000
v 0.923880 0.244512 0.382683
v 0.707107 0.244512 0.707107
v 0.382683 0.244512 0.923880
v -0.000000 0.244512 1.000000
v -0.382684 0.244512 0.923880
v -0.707107 0.244512 0.707107
v -0.923880 0.244512 0.382683
v -1.000000 0.244512 -0.000000
v -0.923879 0.244512 -0.382684
v -0.707106 0.244512 -0.707107
v -0.382683 0.244512 -0.923880
v 0.000001 0.244512 -1.000000
v 0.382684 0.244512 -0.923879
v 0.707107 0.244512 -0.707106
vt 0.386843 0.186904
vt 0.358865 0.159021
vt 0.589993 0.357916
vt 0.545315 0.358690
vt 0.322351 0.143952
vt 0.634696 0.357726
vt 0.282848 0.143991
vt 0.679401 0.358128
vt 0.246362 0.159135
vt 0.724087 0.359117
vt 0.218447 0.187088
vt 0.768731 0.360669
vt 0.203338 0.223605
vt 0.813312 0.362741
vt 0.203331 0.263142
vt 0.857808 0.365258
vt 0.218430 0.299702
vt 0.902204 0.368099
vt 0.246343 0.327740
vt 0.946510 0.371054
vt 0.282850 0.343021
vt 0.990803 0.373790
vt 0.322776 0.342535
vt 0.323256 0.369240
vt 0.359240 0.327374
vt 0.367413 0.366651
vt 0.387104 0.299386
vt 0.411706 0.364113
vt 0.402127 0.262861
vt 0.456141 0.361857
vt 0.402034 0.223364
vt 0.500688 0.360021
vt 0.302674 0.243382
vt 0.239540 0.801745
vt 0.240396 0.771322
vt 0.224936 0.807950
vt 0.245651 0.768053
vt 0.251089 0.765100
vt 0.256692 0.762471
vt 0.262440 0.760178
vt 0.268312 0.758226
vt 0.274290 0.756624
vt 0.280352 0.755376
vt 0.286476 0.754488
vt 0.210193 0.801954
vt 0.213688 0.796846
vt 0.217486 0.791960
vt 0.221565 0.787307
vt 0.225911 0.782901
vt 0.230509 0.778759
vt 0.554114 0.872639
vt 0.593343 0.871806
vt 0.594616 0.911000
vt 0.557282 0.911604
vt 0.632467 0.871708
vt 0.632021 0.910949
vt 0.671574 0.872320
vt 0.669424 0.911436
vt 0.710750 0.873665
vt 0.706754 0.912474
vt 0.750086 0.875823
vt 0.743941 0.914115
vt 0.789685 0.878925
vt 0.780915 0.916478
vt 0.829673 0.883142
vt 0.817594 0.919837
vt 0.870216 0.888620
vt 0.853757 0.924856
vt 0.911572 0.895269
vt 0.888497 0.933182
vt 0.954305 0.902136
vt 0.343602 0.946209
vt 0.352294 0.891860
vt 0.375118 0.930422
vt 0.393915 0.885683
vt 0.410217 0.922329
vt 0.434729 0.880645
vt 0.446431 0.917685
vt 0.474932 0.876897
vt 0.483114 0.914745
vt 0.514682 0.874290
vt 0.520091 0.912812
vt 0.667716 0.023015
vt 0.625006 0.017370
vt 0.709641 0.033041
vt 0.750305 0.047361
vt 0.789250 0.065835
vt 0.826037 0.088269
vt 0.860250 0.114400
vt 0.891530 0.143860
vt 0.919638 0.176112
vt 0.944633 0.210332
vt 0.378296 0.063927
vt 0.416629 0.050251
vt 0.456190 0.037042
vt 0.497131 0.026342
vt 0.539213 0.019194
vt 0.582004 0.016123
vt 0.648856 0.124778
vt 0.616376 0.120633
vt 0.680620 0.132248
vt 0.711364 0.142972
vt 0.740776 0.156873
vt 0.768534 0.173882
vt 0.794309 0.193964
vt 0.817755 0.217158
vt 0.838504 0.243661
vt 0.856242 0.273959
vt 0.415131 0.172547
vt 0.450233 0.153304
vt 0.483889 0.138957
vt 0.517149 0.128864
vt 0.550334 0.122581
vt 0.583458 0.119876
vt 0.643362 0.154160
vt 0.613998 0.150462
vt 0.672085 0.160846
vt 0.699874 0.170444
vt 0.726428 0.182864
vt 0.751437 0.198008
vt 0.774570 0.215791
vt 0.795439 0.236171
vt 0.813503 0.259221
vt 0.827758 0.285216
vt 0.440792 0.200916
vt 0.467215 0.180834
vt 0.495592 0.167264
vt 0.524810 0.158009
vt 0.554460 0.152290
vt 0.584274 0.149816
vt 0.106664 0.569839
vt 0.089977 0.581637
vt 0.124016 0.559045
vt 0.141975 0.549290
vt 0.160476 0.540610
vt 0.179456 0.533035
vt 0.198850 0.526591
vt 0.218589 0.521301
vt 0.238606 0.517181
vt 0.258830 0.514248
vt 0.006897 0.670975
vt 0.018466 0.654129
vt 0.031008 0.637994
vt 0.044478 0.622625
vt 0.058830 0.608076
vt 0.074014 0.594398
vt 0.584579 0.176182
vt 0.611510 0.176710
vt 0.557704 0.178455
vt 0.531320 0.183555
vt 0.506089 0.191508
vt 0.483191 0.202438
vt 0.465053 0.217184
vt 0.802798 0.293197
vt 0.790980 0.272333
vt 0.775271 0.252821
vt 0.756749 0.235048
vt 0.736005 0.219291
vt 0.713449 0.205758
vt 0.689420 0.194616
vt 0.664226 0.185995
vt 0.638159 0.180000
vt 0.526228 0.967262
vt 0.561527 0.966073
vt 0.491984 0.968865
vt 0.459503 0.971126
vt 0.429798 0.974543
vt 0.404268 0.980214
vt 0.384732 0.990317
vt 0.852647 0.970631
vt 0.828764 0.964842
vt 0.800131 0.961463
vt 0.768596 0.959234
vt 0.735231 0.957643
vt 0.703151 0.961202
vt 0.668744 0.963359
vt 0.633230 0.964451
vt 0.597350 0.965155
vt 0.279106 0.371420
vt 0.309530 0.897940
vt 0.236062 0.796634
vt 0.235343 0.774895
vt 0.230894 0.793245
vt 0.224824 0.792092
vt 0.218779 0.793355
vt 0.209056 0.808053
vt 0.292643 0.753962
vt 0.808323 0.314746
vt 0.279193 0.512511
vt 0.210324 0.814123
vt 0.213812 0.819248
vt 0.218994 0.822647
vt 0.225080 0.823803
vt 0.231143 0.822541
vt 0.236259 0.819055
vt 0.239650 0.813878
vt 0.240801 0.807799
vt 0.835724 0.314581
vt 0.871155 0.309224
vt 0.868398 0.981058
vt 0.967222 0.245233
vt 0.918214 0.948649
vt 0.988343 0.345362
vt 0.499847 0.332775
vt 0.544776 0.331435
vt 0.455051 0.334625
vt 0.410467 0.336910
vt 0.366242 0.339544
vt 0.947005 0.343731
vt 0.903618 0.340867
vt 0.859348 0.338030
vt 0.814703 0.335506
vt 0.769862 0.333425
vt 0.724907 0.331865
vt 0.679886 0.330870
vt 0.634834 0.330464
vt 0.589785 0.330656
vn 0.825469 -0.449101 -0.341920
vn 0.631787 -0.449101 -0.631786
vn 0.631787 -0.449101 -0.631786
vn 0.825469 -0.449101 -0.341920
vn 0.341921 -0.449101 -0.825469
vn 0.341921 -0.449101 -0.825469
vn 0.000000 -0.449101 -0.893481
vn 0.000000 -0.449101 -0.893481
vn -0.341920 -0.449101 -0.825469
vn -0.341920 -0.449101 -0.825469
vn -0.631786 -0.449101 -0.631787
vn -0.631786 -0.449101 -0.631787
vn -0.825469 -0.449101 -0.341921
vn -0.825469 -0.449101 -0.341921
vn -0.893481 -0.449101 -0.000000
vn -0.893481 -0.449101 -0.000000
vn -0.825469 -0.449101 0.341920
vn -0.825469 -0.449101 0.341920
vn -0.631787 -0.449101 0.631786
vn -0.631787 -0.449101 0.631786
vn -0.341921 -0.449101 0.825469
vn -0.341921 -0.449101 0.825469
vn -0.000000 -0.449101 0.893481
vn -0.000000 -0.449101 0.893481
vn 0.341920 -0.449101 0.825469
vn 0.341920 -0.449101 0.825469
vn 0.631786 -0.449101 0.631787
vn 0.631786 -0.449101 0.631787
vn 0.825469 -0.449101 0.341920
vn 0.825469 -0.449101 0.341920
vn 0.893481 -0.449101 0.000000
vn 0.893481 -0.449101 0.000000
vn 0.000000 -1.000000 0.000000
vn 0.000000 -1.000000 0.000000
vn 0.000000 -1.000000 -0.000000
vn 0.000000 -1.000000 0.000000
vn 0.000000 -1.000000 0.000000
vn 0.000000 -1.000000 0.000000
vn 0.000000 -1.000000 -0.000000
vn 0.000000 -1.000000 -0.000000
vn 0.000000 -1.000000 0.000000
vn 0.000000 -1.000000 0.000000
vn 0.000000 -1.000000 0.000000
vn 0.000000 -1.000000 0.000000
vn 0.000000 -1.000000 -0.000000
vn 0.000000 -1.000000 0.000000
vn 0.000000 -1.000000 0.000000
vn 0.000000 -1.000000 0.000000
vn 0.000000 -1.000000 0.000000
vn 0.000000 1.000000 0.000020
vn 0.000000 1.000000 -0.000020
vn 0.000000 1.000000 0.000000
vn 0.000000 1.000000 -0.000020
vn 0.000000 1.000000 0.000001
vn 0.000000 1.000000 -0.000009
vn 0.000000 1.000000 -0.000010
vn 0.000000 1.000000 0.000020
vn 0.000000 1.000000 0.000000
vn 0.000000 1.000000 -0.000020
vn 0.000000 1.000000 0.000020
vn 0.000000 1.000000 0.000020
vn 0.000000 1.000000 0.000001
vn 0.000000 1.000000 0.000011
vn 0.000000 1.000000 0.000010
vn 0.000000 1.000000 -0.000020
vn 0.000000 1.000000 -0.000000
vn 0.742972 0.594376 -0.307749
vn 0.568647 0.594376 -0.568646
vn 0.568647 0.594376 -0.568646
vn 0.742972 0.594376 -0.307749
vn 0.307749 0.594376 -0.742972
vn 0.307749 0.594376 -0.742972
vn 0.000001 0.594376 -0.804188
vn 0.000001 0.594376 -0.804188
vn -0.307749 0.594376 -0.742972
vn -0.307749 0.594376 -0.742972
vn -0.568646 0.594376 -0.568646
vn -0.568646 0.594376 -0.568646
vn -0.742972 0.594376 -0.307750
vn -0.742972 0.594376 -0.307750
vn -0.804187 0.594376 -0.000001
vn -0.804187 0.594376 -0.000001
vn -0.742972 0.594376 0.307749
vn -0.742972 0.594376 0.307749
vn -0.568646 0.594376 0.568646
vn -0.568646 0.594376 0.568646
vn -0.307749 0.594376 0.742972
vn -0.307749 0.594376 0.742972
vn -0.000000 0.594376 0.804188
vn -0.000000 0.594376 0.804188
vn 0.307749 0.594376 0.742972
vn 0.307749 0.594376 0.742972
vn 0.568646 0.594376 0.568646
vn 0.568646 0.594376 0.568646
vn 0.742972 0.594376 0.307750
vn 0.742972 0.594376 0.307750
vn 0.804187 0.594376 0.000000
vn 0.804187 0.594376 0.000000
vn 0.000000 1.000000 0.000000
vn 0.000000 1.000000 -0.000001
vn 0.000000 1.000000 -0.000001
vn 0.000000 1.000000 0.000000
vn 0.000000 1.000000 0.000000
vn 0.000000 1.000000 0.000000
vn 0.000000 1.000000 0.000000
vn 0.000000 1.000000 0.000000
vn 0.000000 1.000000 -0.000000
vn 0.000000 1.000000 -0.000000
vn 0.000000 1.000000 -0.000001
vn 0.000000 1.000000 -0.000001
vn 0.000000 1.000000 -0.000001
vn 0.000000 1.000000 -0.000001
vn 0.000000 1.000000 0.000000
vn 0.000000 1.000000 0.000000
vn 0.000000 1.000000 0.000000
vn 0.000000 1.000000 0.000000
vn 0.000000 1.000000 0.000001
vn 0.000000 1.000000 0.000001
vn 0.000000 1.000000 0.000001
vn 0.000000 1.000000 0.000001
vn 0.000000 1.000000 0.000000
vn 0.000000 1.000000 0.000000
vn 0.000000 1.000000 0.000000
vn 0.000000 1.000000 0.000000
vn 0.000000 1.000000 0.000001
vn 0.000000 1.000000 0.000001
vn 0.000000 1.000000 0.000001
vn 0.000000 1.000000 0.000001
vn 0.000000 1.000000 0.000001
vn 0.000000 1.000000 0.000001
vn 0.923880 0.000000 -0.382683
vn 0.707107 0.000000 -0.707107
vn 0.707107 0.000000 -0.707107
vn 0.923880 0.000000 -0.382683
vn 0.382683 0.000000 -0.923880
vn 0.382683 0.000000 -0.923880
vn 0.000000 0.000000 -1.000000
vn 0.000000 0.000000 -1.000000
vn -0.382682 0.000000 -0.923880
vn -0.382682 0.000000 -0.923880
vn -0.707106 0.000000 -0.707107
vn -0.707106 0.000000 -0.707107
vn -0.923880 0.000000 -0.382683
vn -0.923880 0.000000 -0.382683
vn -1.000000 0.000000 0.000000
vn -1.000000 0.000000 0.000000
vn -0.923880 0.000000 0.382683
vn -0.923880 0.000000 0.382683
vn -0.707107 0.000000 0.707107
vn -0.707107 0.000000 0.707107
vn -0.382683 0.000000 0.923880
vn -0.382683 0.000000 0.923880
vn -0.000000 0.000000 1.000000
vn -0.000000 0.000000 1.000000
vn 0.382683 0.000000 0.923880
vn 0.382683 0.000000 0.923880
vn 0.707107 0.000000 0.707107
vn 0.707107 0.000000 0.707107
vn 0.923880 0.000000 0.382683
vn 0.923880 0.000000 0.382683
vn 1.000000 0.000000 -0.000000
vn 1.000000 0.000000 -0.000000
vn 0.666902 0.692051 -0.276239
vn 0.510425 0.692051 -0.510424
vn 0.370015 0.852161 -0.370014
vn 0.483448 0.852160 -0.200251
vn 0.276239 0.692051 -0.666901
vn 0.200251 0.852161 -0.483447
vn 0.000000 0.692050 -0.721850
vn -0.000000 0.852161 -0.523280
vn -0.276239 0.692051 -0.666901
vn -0.200250 0.852161 -0.483448
vn -0.510425 0.692051 -0.510423
vn -0.370015 0.852161 -0.370015
vn -0.666901 0.692051 -0.276240
vn -0.483448 0.852160 -0.200252
vn -0.721849 0.692050 -0.000000
vn -0.523280 0.852161 0.000000
vn -0.666902 0.692051 0.276239
vn -0.483449 0.852160 0.200251
vn -0.510425 0.692051 0.510424
vn -0.370015 0.852161 0.370014
vn -0.276239 0.692050 0.666902
vn -0.200250 0.852160 0.483449
vn -0.000000 0.692050 0.721850
vn -0.000000 0.852160 0.523281
vn 0.276239 0.692051 0.666901
vn 0.200250 0.852160 0.483449
vn 0.510424 0.692050 0.510424
vn 0.370015 0.852161 0.370015
vn 0.666901 0.692051 0.276240
vn 0.483448 0.852160 0.200252
vn 0.721849 0.692050 0.000000
vn 0.523280 0.852161 0.000000
vn 0.000000 1.000000 0.000002
vn 0.000000 1.000000 0.000000
vn 0.000000 1.000000 0.000004
vn 0.000000 1.000000 0.000003
vn 0.000000 1.000000 0.000000
vn 0.000000 1.000000 -0.000002
vn 0.000000 1.000000 -0.000002
vn 0.000000 1.000000 0.000000
vn 0.000000 1.000000 0.000000
vn 0.000000 1.000000 -0.000002
vn 0.000000 1.000000 -0.000001
vn 0.000000 1.000000 0.000003
vn 0.000000 1.000000 0.000002
vn 0.000000 1.000000 0.000001
vn 0.000000 1.000000 0.000002
vn 0.000000 1.000000 0.000000
vn 0.913287 0.150995 -0.378295
vn 0.699000 0.150995 -0.698999
vn 0.699000 0.150995 -0.698999
vn 0.913287 0.150995 -0.378295
vn 0.378296 0.150995 -0.913287
vn 0.378295 0.150995 -0.913287
vn -0.000000 0.150995 -0.988535
vn -0.000000 0.150995 -0.988535
vn -0.378295 0.150995 -0.913287
vn -0.378295 0.150995 -0.913287
vn -0.698999 0.150995 -0.699000
vn -0.698999 0.150995 -0.699000
vn -0.913287 0.150995 -0.378296
vn -0.913287 0.150995 -0.378296
vn -0.988535 0.150995 -0.000001
vn -0.988535 0.150995 -0.000001
vn -0.913287 0.150995 0.378294
vn -0.913287 0.150995 0.378294
vn -0.699000 0.150995 0.698999
vn -0.699000 0.150995 0.698999
vn -0.378295 0.150995 0.913287
vn -0.378295 0.150995 0.913287
vn 0.000000 0.150995 0.988535
vn 0.000000 0.150995 0.988535
vn 0.378295 0.150995 0.913287
vn 0.378295 0.150995 0.913287
vn 0.698999 0.150995 0.699000
vn 0.698999 0.150995 0.699000
vn 0.913287 0.150995 0.378296
vn 0.913287 0.150995 0.378296
vn 0.988535 0.150995 0.000001
vn 0.988535 0.150995 0.000001
vn 1.000000 0.000000 0.000000
vn 0.923880 0.000000 -0.382683
vn 0.923880 0.000000 -0.382683
vn 1.000000 0.000000 0.000000
vn 0.923880 0.000000 0.382683
vn 0.923880 0.000000 0.382683
vn 0.707107 0.000000 0.707107
vn 0.707107 0.000000 0.707107
vn 0.382683 0.000000 0.923880
vn 0.382683 0.000000 0.923880
vn -0.000000 0.000000 1.000000
vn -0.000000 0.000000 1.000000
vn -0.382684 0.000000 0.923880
vn -0.382684 0.000000 0.923880
vn -0.707107 0.000000 0.707107
vn -0.707107 0.000000 0.707107
vn -0.923880 0.000000 0.382683
vn -0.923880 0.000000 0.382683
vn -1.000000 0.000000 -0.000000
vn -1.000000 0.000000 -0.000000
vn -0.923879 0.000000 -0.382684
vn -0.923879 0.000000 -0.382684
vn -0.707106 0.000000 -0.707107
vn -0.707106 0.000000 -0.707107
vn -0.382683 0.000000 -0.923880
vn -0.382683 0.000000 -0.923880
vn 0.000001 0.000000 -1.000000
vn 0.000001 0.000000 -1.000000
vn 0.382684 0.000000 -0.923879
vn 0.382684 0.000000 -0.923879
vn 0.707107 0.000000 -0.707106
vn 0.707107 0.000000 -0.707106
s 1
g sauce
usemtl initialShadingGroup
f 1/205/1 2/217/2 146/3/3 131/4/4
f 2/217/2 3/216/5 145/6/6 146/3/3
f 3/216/5 4/215/7 144/8/8 145/6/6
f 4/215/7 5/214/9 143/10/10 144/8/8
f 5/214/9 6/213/11 142/12/12 143/10/10
f 6/213/11 7/212/13 141/14/14 142/12/12
f 7/212/13 8/211/15 140/16/16 141/14/14
f 8/211/15 9/210/17 139/18/18 140/16/16
f 9/210/17 10/209/19 138/20/20 139/18/18
f 10/209/19 11/203/21 137/22/22 138/20/20
f 11/21/21 12/23/23 136/24/24 137/179/22
f 12/23/23 13/208/25 135/26/26 136/24/24
f 13/208/25 14/207/27 134/28/28 135/26/26
f 14/207/27 15/206/29 133/30/30 134/28/28
f 15/206/29 16/204/31 132/32/32 133/30/30
f 16/204/31 1/205/1 131/4/4 132/32/32
s 2
f 2/2/33 1/1/34 33/33/35
f 3/5/36 2/2/33 33/33/35
f 4/7/37 3/5/36 33/33/35
f 5/9/38 4/7/37 33/33/35
f 6/11/39 5/9/38 33/33/35
f 7/13/40 6/11/39 33/33/35
f 8/15/41 7/13/40 33/33/35
f 9/17/42 8/15/41 33/33/35
f 10/19/43 9/17/42 33/33/35
f 11/21/44 10/19/43 33/33/35
f 12/23/45 11/21/44 33/33/35
f 13/25/46 12/23/45 33/33/35
f 14/27/47 13/25/46 33/33/35
f 15/29/48 14/27/47 33/33/35
f 16/31/49 15/29/48 33/33/35
f 1/1/34 16/31/49 33/33/35
s 3
f 114/34/50 115/197/51 116/36/52
f 115/197/51 117/196/53 116/36/52
f 117/196/53 118/195/54 116/36/52
f 118/195/54 119/194/55 116/36/52
f 119/194/55 120/193/56 116/36/52
f 120/193/56 121/192/57 116/36/52
f 121/192/57 122/191/58 116/36/52
f 122/191/58 123/190/59 116/36/52
f 123/190/59 124/186/60 116/36/52
f 124/186/60 125/45/61 116/36/52
f 125/45/61 126/46/62 116/36/52
f 126/46/62 127/185/63 116/36/52
f 127/185/63 128/184/64 116/36/52
f 128/184/64 129/183/65 116/36/52
f 129/183/65 130/181/66 116/36/52
f 130/181/66 114/34/50 116/36/52
s 4
f 17/51/67 18/52/68 35/53/69 34/54/70
f 18/52/68 19/55/71 36/56/72 35/53/69
f 19/55/71 20/57/73 37/58/74 36/56/72
f 20/57/73 21/59/75 38/60/76 37/58/74
f 21/59/75 22/61/77 39/62/78 38/60/76
f 22/61/77 23/63/79 40/64/80 39/62/78
f 23/63/79 24/65/81 41/66/82 40/64/80
f 24/65/81 25/67/83 42/68/84 41/66/82
f 25/67/83 26/69/85 43/70/86 42/68/84
f 26/69/85 27/71/87 44/202/88 43/70/86
f 27/180/87 28/73/89 45/74/90 44/72/88
f 28/73/89 29/75/91 46/76/92 45/74/90
f 29/75/91 30/77/93 47/78/94 46/76/92
f 30/77/93 31/79/95 48/80/96 47/78/94
f 31/79/95 32/81/97 49/82/98 48/80/96
f 32/81/97 17/51/67 34/54/70 49/82/98
s 5
f 34/54/99 35/53/100 51/178/101 50/164/102
f 35/53/100 36/56/103 52/177/104 51/178/101
f 36/56/103 37/58/105 53/176/106 52/177/104
f 37/58/105 38/60/107 54/175/108 53/176/106
f 38/60/107 39/62/109 55/174/110 54/175/108
f 39/62/109 40/64/111 56/173/112 55/174/110
f 40/64/111 41/66/113 57/172/114 56/173/112
f 41/66/113 42/68/115 58/171/116 57/172/114
f 42/68/115 43/70/117 59/170/118 58/171/116
f 43/70/117 44/202/119 60/200/120 59/170/118
f 44/72/119 45/74/121 61/168/122 60/169/120
f 45/74/121 46/76/123 62/167/124 61/168/122
f 46/76/123 47/78/125 63/166/126 62/167/124
f 47/78/125 48/80/127 64/165/128 63/166/126
f 48/80/127 49/82/129 65/163/130 64/165/128
f 49/82/129 34/54/99 50/164/102 65/163/130
s 6
f 50/84/131 51/83/132 67/99/133 66/100/134
f 51/83/132 52/85/135 68/101/136 67/99/133
f 52/85/135 53/86/137 69/102/138 68/101/136
f 53/86/137 54/87/139 70/103/140 69/102/138
f 54/87/139 55/88/141 71/104/142 70/103/140
f 55/88/141 56/89/143 72/105/144 71/104/142
f 56/89/143 57/90/145 73/106/146 72/105/144
f 57/90/145 58/91/147 74/107/148 73/106/146
f 58/91/147 59/92/149 75/108/150 74/107/148
f 59/92/149 60/201/151 76/199/152 75/108/150
f 60/93/151 61/94/153 77/110/154 76/109/152
f 61/94/153 62/95/155 78/111/156 77/110/154
f 62/95/155 63/96/157 79/112/158 78/111/156
f 63/96/157 64/97/159 80/113/160 79/112/158
f 64/97/159 65/98/161 81/114/162 80/113/160
f 65/98/161 50/84/131 66/100/134 81/114/162
s 7
f 66/100/163 67/99/164 83/115/165 82/116/166
f 67/99/164 68/101/167 84/117/168 83/115/165
f 68/101/167 69/102/169 85/118/170 84/117/168
f 69/102/169 70/103/171 86/119/172 85/118/170
f 70/103/171 71/104/173 87/120/174 86/119/172
f 71/104/173 72/105/175 88/121/176 87/120/174
f 72/105/175 73/106/177 89/122/178 88/121/176
f 73/106/177 74/107/179 90/123/180 89/122/178
f 74/107/179 75/108/181 91/124/182 90/123/180
f 75/108/181 76/199/183 92/198/184 91/124/182
f 76/109/183 77/110/185 93/126/186 92/125/184
f 77/110/185 78/111/187 94/127/188 93/126/186
f 78/111/187 79/112/189 95/128/190 94/127/188
f 79/112/189 80/113/191 96/129/192 95/128/190
f 80/113/191 81/114/193 97/130/194 96/129/192
f 81/114/193 66/100/163 82/116/166 97/130/194
f 82/116/166 83/115/165 99/162/195 98/148/196
f 83/115/165 84/117/168 100/161/197 99/162/195
f 84/117/168 85/118/170 101/160/198 100/161/197
f 85/118/170 86/119/172 102/159/199 101/160/198
f 86/119/172 87/120/174 103/158/200 102/159/199
f 87/120/174 88/121/176 104/157/201 103/158/200
f 88/121/176 89/122/178 105/156/202 104/157/201
f 89/122/178 90/123/180 106/155/203 105/156/202
f 90/123/180 91/124/182 107/154/204 106/155/203
f 91/124/182 92/198/184 108/188/205 107/154/204
f 92/125/184 93/126/186 109/152/206 108/153/205
f 93/126/186 94/127/188 110/151/207 109/152/206
f 94/127/188 95/128/190 111/150/208 110/151/207
f 95/128/190 96/129/192 112/149/209 111/150/208
f 96/129/192 97/130/194 113/147/210 112/149/209
f 97/130/194 82/116/166 98/148/196 113/147/210
s 8
f 98/132/211 99/131/212 115/35/213 114/182/214
f 99/131/212 100/133/215 117/37/216 115/35/213
f 100/133/215 101/134/217 118/38/218 117/37/216
f 101/134/217 102/135/219 119/39/220 118/38/218
f 102/135/219 103/136/221 120/40/222 119/39/220
f 103/136/221 104/137/223 121/41/224 120/40/222
f 104/137/223 105/138/225 122/42/226 121/41/224
f 105/138/225 106/139/227 123/43/228 122/42/226
f 106/139/227 107/140/229 124/44/230 123/43/228
f 107/140/229 108/189/231 125/187/232 124/44/230
f 108/141/231 109/142/233 126/46/234 125/45/232
f 109/142/233 110/143/235 127/47/236 126/46/234
f 110/143/235 111/144/237 128/48/238 127/47/236
f 111/144/237 112/145/239 129/49/240 128/48/238
f 112/145/239 113/146/241 130/50/242 129/49/240
f 113/146/241 98/132/211 114/182/214 130/50/242
s 9
f 132/32/243 131/4/244 17/51/245 32/81/246
f 133/30/247 132/32/243 32/81/246 31/79/248
f 134/28/249 133/30/247 31/79/248 30/77/250
f 135/26/251 134/28/249 30/77/250 29/75/252
f 136/24/253 135/26/251 29/75/252 28/73/254
f 137/179/255 136/24/253 28/73/254 27/180/256
f 138/20/257 137/22/255 27/71/256 26/69/258
f 139/18/259 138/20/257 26/69/258 25/67/260
f 140/16/261 139/18/259 25/67/260 24/65/262
f 141/14/263 140/16/261 24/65/262 23/63/264
f 142/12/265 141/14/263 23/63/264 22/61/266
f 143/10/267 142/12/265 22/61/266 21/59/268
f 144/8/269 143/10/267 21/59/268 20/57/270
f 145/6/271 144/8/269 20/57/270 19/55/272
f 146/3/273 145/6/271 19/55/272 18/52/274
f 131/4/244 146/3/273 18/52/274 17/51/245
